<svg width="110" height="101" viewBox="0 0 110 101" fill="none" xmlns="http://www.w3.org/2000/svg"><path d="M12.1726 32.724C12.3143 24.9032 13.635 20.075 19.3635 14.7363C24.4179 10.0258 28.8291 9.87713 34.8777 7.77707C39.0649 6.3233 41.4316 3 46.2586 3C52.5503 3 57.3063 3.23878 63.3015 5.83086C75.724 11.2018 90.0366 16.4671 96.2551 29.4213C97.9082 32.8652 100.342 36.3621 96.6514 39.5652C89.8071 45.506 75.9339 44.4013 67.6048 44.4013C60.8668 44.4013 54.1289 44.4013 47.391 44.4013C37.3242 44.4013 27.634 44.257 17.7215 46.0526C15.3187 46.4879 4.96413 44.9357 4.01918 47.7039C1.82449 54.1332 5.94647 59.8963 12.0594 59.853C25.6993 59.7564 38.7417 55.123 52.4869 55.017C64.3686 54.9253 76.2774 54.8174 88.1582 55.017C93.8776 55.1131 96.9452 55.67 100.049 60.3248C102.026 63.2908 104.526 66.0914 99.9354 68.3456C96.9754 69.7991 92.6464 70.3189 89.5171 69.1712C87.4936 68.4291 86.6104 65.3575 84.1948 65.9865C78.8596 67.3758 76.7047 74.646 71.1153 75.0099C65.133 75.3993 57.7332 67.0916 52.8832 69.1123C48.3835 70.987 45.9441 76.1304 40.6531 76.1304C36.8631 76.1304 34.4225 72.9463 30.7444 73.8304C24.9621 75.2202 20.8712 78.7259 14.7206 78.3125C11.4938 78.0957 7.58967 73.7627 6.11416 77.6048C3.14111 85.3466 5.97206 87.2016 13.0786 86.7461C24.6099 86.007 35.8443 83.6794 47.4476 83.6794C65.774 83.6794 84.1004 83.6794 102.427 83.6794C106.835 83.6794 107.156 84.0788 106.956 88.7513C106.59 97.3282 90.8556 95.8765 85.4404 96.4182C64.3315 98.53 42.4466 98.1297 21.232 97.4798C13.9472 97.2566 5.79508 95.204 3 87.9257" stroke="white" stroke-width="5" stroke-linecap="round" stroke-linejoin="round"></path></svg>